# xmcd
#
# Track frame offsets:
#	150
#	12912
#	26765
#	36787
#	48162
#	63455
#	78085
#	91070
#	99407
#	111665
#
# Disc length: 1685 seconds
#
# Revision: 0
# Processed by: cddbd v1.5.2PL0 Copyright (c) Steve Scherf et al.
# Submitted via: EasyCDDAExtractor 10.2.0.1
#
DISCID=7306930a
DTITLE=Common Ground - Somebody's Listening
DYEAR=1997
DGENRE=Gospel
TTITLE0=Somebody's Listening
TTITLE1=I'll Hold On
TTITLE2=I'll Just Go And Tell The lord
TTITLE3=He Came Along
TTITLE4=He's Living In Me
TTITLE5=What A Prayer Can Do
TTITLE6=He'll Carry Me Over
TTITLE7=Over In The Great Beyond
TTITLE8=Nothing Good That I Have Done
TTITLE9=Crimson Rose
EXTD=
EXTT0=
EXTT1=
EXTT2=
EXTT3=
EXTT4=
EXTT5=
EXTT6=
EXTT7=
EXTT8=
EXTT9=
PLAYORDER=
